<svg width="120" height="120" viewBox="0 0 120 120" fill="none" xmlns="http://www.w3.org/2000/svg">
<path d="M0 0H42.5C65.9721 0 85 19.0279 85 42.5C85 65.9721 65.9721 85 42.5 85C19.0279 85 0 65.9721 0 42.5V0Z" fill="#0847CE"/>
<line x1="6.5" y1="36.8857" x2="6.5" y2="56.0857" stroke="white"/>
<line x1="41.2429" y1="36.8857" x2="41.2429" y2="56.0857" stroke="#FF0000"/>
<line x1="15.6428" y1="36.8857" x2="15.6428" y2="56.0857" stroke="white"/>
<line x1="50.3857" y1="36.8857" x2="50.3857" y2="56.0857" stroke="#FF0000"/>
<line x1="67.7572" y1="36.8857" x2="67.7572" y2="56.0857" stroke="#00C2FF"/>
<line x1="30.2715" y1="36.8857" x2="30.2715" y2="56.0857" stroke="#00C2FF"/>
<line x1="62.2715" y1="36.8857" x2="62.2715" y2="56.0857" stroke="white"/>
<line x1="18.3857" y1="41.4572" x2="18.3857" y2="51.5143" stroke="#FF6B00"/>
<line x1="35.7571" y1="36.8857" x2="35.7571" y2="56.0857" stroke="#00C2FF"/>
<line x1="11.9857" y1="29.5715" x2="11.9857" y2="63.4" stroke="white"/>
<line x1="47.6428" y1="29.5715" x2="47.6428" y2="63.4" stroke="#FF0000"/>
<line x1="26.6143" y1="29.5715" x2="26.6143" y2="63.4" stroke="#FF6B00"/>
<line x1="58.6143" y1="29.5715" x2="58.6143" y2="63.4" stroke="white"/>
<line x1="21.1285" y1="29.5715" x2="21.1285" y2="63.4" stroke="#FF6B00"/>
<line x1="53.1285" y1="29.5715" x2="53.1285" y2="63.4" stroke="white"/>
<line x1="70.5" y1="29.5715" x2="70.5" y2="63.4" stroke="#00C2FF"/>
<line x1="33.0143" y1="29.5715" x2="33.0143" y2="63.4" stroke="#00C2FF"/>
<line x1="65.0143" y1="29.5715" x2="65.0143" y2="63.4" stroke="#00C2FF"/>
<line x1="9.24292" y1="25" x2="9.24292" y2="67.9714" stroke="white"/>
<line x1="43.9857" y1="25" x2="43.9857" y2="67.9714" stroke="#FF0000"/>
<line x1="23.8715" y1="25" x2="23.8715" y2="67.9714" stroke="#FF6B00"/>
<line x1="55.8715" y1="25" x2="55.8715" y2="67.9714" stroke="white"/>
<line x1="38.5" y1="25" x2="38.5" y2="67.9714" stroke="#00C2FF"/>
</svg>
