<svg width="126" height="120" viewBox="0 0 126 120" fill="none" xmlns="http://www.w3.org/2000/svg">
<path d="M3 0H63C96.1371 0 123 26.8629 123 60C123 93.1371 96.1371 120 63 120C29.8629 120 3 93.1371 3 60V0Z" fill="white"/>
<g clip-path="url(#clip0)">
<g opacity="0.1">
<path opacity="0.1" d="M73.4489 41.99C73.4489 41.99 72.7793 41.7617 72.4544 42.3546C72.3694 42.5151 72.3262 42.6945 72.3287 42.8762C72.3312 43.0579 72.3794 43.236 72.4688 43.3941C72.6809 43.7776 73.1174 44.2807 73.944 44.2319C74.6457 44.1943 74.8789 43.6579 74.9386 43.1581C74.9615 42.9711 74.9364 42.7814 74.8659 42.6068C74.7954 42.4322 74.6816 42.2786 74.5354 42.1603C74.3892 42.0421 74.2153 41.9632 74.0303 41.931C73.8452 41.8989 73.655 41.9146 73.4777 41.9767L73.4489 41.99Z" fill="#6C63FF"/>
<path opacity="0.1" d="M72.6146 43.4484C72.5252 43.2903 72.4771 43.1122 72.4746 42.9305C72.472 42.7488 72.5153 42.5694 72.6002 42.4089C72.9229 41.8171 73.5948 42.0443 73.5948 42.0443L73.629 42.0321C73.8847 41.9393 74.1657 41.9456 74.4169 42.0498C74.2782 41.967 74.1229 41.9161 73.9622 41.9007C73.8015 41.8854 73.6394 41.906 73.4876 41.9612L73.4533 41.9733C73.4533 41.9733 72.7837 41.745 72.4588 42.338C72.3738 42.4985 72.3306 42.6779 72.3331 42.8596C72.3356 43.0413 72.3838 43.2194 72.4731 43.3775C72.6392 43.695 72.9059 43.9481 73.2312 44.0967C72.9704 43.9413 72.7571 43.7171 72.6146 43.4484Z" fill="#6C63FF"/>
<path opacity="0.2" d="M73.103 42.2747C73.103 42.2747 73.3517 42.4709 73.955 42.2747H73.103Z" fill="#6C63FF"/>
<path opacity="0.1" d="M73.0488 40.8506C73.0488 40.8506 73.4743 42.0077 73.4389 42.3102L73.776 42.2747C73.776 42.2747 73.208 41.2607 73.3505 40.8506H73.0488Z" fill="#6C63FF"/>
<path opacity="0.2" d="M73.0488 40.8506C73.0488 40.8506 73.4743 42.0077 73.4389 42.3102L73.776 42.2747C73.776 42.2747 73.208 41.2607 73.3505 40.8506H73.0488Z" fill="#6C63FF"/>
<path opacity="0.1" d="M74.7883 40.9482C74.7883 40.9482 74.1175 40.6046 73.818 40.8883C73.5186 41.172 73.4722 41.8979 73.4722 41.8979C73.4722 41.8979 74.5651 42.0464 74.7883 40.9482Z" fill="#6C63FF"/>
<path opacity="0.1" d="M74.7883 40.9482C74.7883 40.9482 74.1175 40.6046 73.818 40.8883C73.5186 41.172 73.4722 41.8979 73.4722 41.8979C73.4722 41.8979 74.5651 42.0464 74.7883 40.9482Z" fill="#6C63FF"/>
<path opacity="0.1" d="M73.4709 41.8979C73.4709 41.8979 73.6466 41.0556 74.7871 40.947L73.4709 41.8979Z" fill="#6C63FF"/>
</g>
<g opacity="0.1">
<path opacity="0.1" d="M87.5936 52.9616C87.5936 52.9616 86.924 52.7333 86.5991 53.3262C86.5141 53.4867 86.4709 53.6661 86.4734 53.8478C86.4759 54.0295 86.5241 54.2077 86.6135 54.3657C86.8256 54.7492 87.2621 55.2523 88.0887 55.2036C88.7904 55.1659 89.0236 54.6295 89.0833 54.1297C89.1061 53.9427 89.0811 53.753 89.0106 53.5784C88.94 53.4038 88.8263 53.2502 88.6801 53.1319C88.5339 53.0137 88.36 52.9348 88.175 52.9027C87.9899 52.8705 87.7997 52.8862 87.6224 52.9483L87.5936 52.9616Z" fill="#6C63FF"/>
<path opacity="0.1" d="M86.7593 54.42C86.6699 54.262 86.6218 54.0838 86.6193 53.9021C86.6168 53.7204 86.66 53.541 86.7449 53.3805C87.0676 52.7887 87.7395 53.0159 87.7395 53.0159L87.7738 53.0037C88.0294 52.9109 88.3104 52.9172 88.5617 53.0214C88.423 52.9386 88.2676 52.8877 88.1069 52.8723C87.9462 52.857 87.7841 52.8777 87.6323 52.9328L87.5981 52.945C87.5981 52.945 86.9284 52.7167 86.6035 53.3096C86.5185 53.4701 86.4753 53.6495 86.4778 53.8312C86.4803 54.0129 86.5285 54.191 86.6179 54.3491C86.7839 54.6666 87.0506 54.9197 87.3759 55.0684C87.1151 54.9129 86.9018 54.6887 86.7593 54.42Z" fill="#6C63FF"/>
<path opacity="0.2" d="M87.2477 53.2463C87.2477 53.2463 87.4964 53.4425 88.0997 53.2463H87.2477Z" fill="#6C63FF"/>
<path opacity="0.1" d="M87.1936 51.8223C87.1936 51.8223 87.6191 52.9793 87.5837 53.2818L87.9207 53.2464C87.9207 53.2464 87.3527 52.2323 87.4953 51.8223H87.1936Z" fill="#6C63FF"/>
<path opacity="0.2" d="M87.1936 51.8223C87.1936 51.8223 87.6191 52.9793 87.5837 53.2818L87.9207 53.2464C87.9207 53.2464 87.3527 52.2323 87.4953 51.8223H87.1936Z" fill="#6C63FF"/>
<path opacity="0.1" d="M88.933 51.9198C88.933 51.9198 88.2622 51.5762 87.9627 51.8599C87.6632 52.1436 87.6168 52.8695 87.6168 52.8695C87.6168 52.8695 88.7097 53.018 88.933 51.9198Z" fill="#6C63FF"/>
<path opacity="0.1" d="M88.933 51.9198C88.933 51.9198 88.2622 51.5762 87.9627 51.8599C87.6632 52.1436 87.6168 52.8695 87.6168 52.8695C87.6168 52.8695 88.7097 53.018 88.933 51.9198Z" fill="#6C63FF"/>
<path opacity="0.1" d="M87.6157 52.8695C87.6157 52.8695 87.7914 52.0272 88.9319 51.9186L87.6157 52.8695Z" fill="#6C63FF"/>
</g>
<path opacity="0.1" d="M109.956 86.824C113.251 86.824 115.923 85.8714 115.923 84.6962C115.923 83.521 113.251 82.5684 109.956 82.5684C106.66 82.5684 103.988 83.521 103.988 84.6962C103.988 85.8714 106.66 86.824 109.956 86.824Z" fill="black"/>
<path opacity="0.1" d="M95.1036 80.7065C98.3993 80.7065 101.071 79.7538 101.071 78.5787C101.071 77.4035 98.3993 76.4508 95.1036 76.4508C91.808 76.4508 89.1363 77.4035 89.1363 78.5787C89.1363 79.7538 91.808 80.7065 95.1036 80.7065Z" fill="black"/>
<path d="M125.792 89.6843L91.5752 71.4814H84.4L86.2565 55.9837C86.2971 55.6444 86.2699 55.3005 86.1764 54.9719C86.0828 54.6434 85.9249 54.3369 85.7118 54.0703C85.4986 53.8037 85.2346 53.5825 84.9352 53.4195C84.6358 53.2565 84.3069 53.155 83.9679 53.1211L83.7757 53.1288H83.7569L57.6543 53.5267C56.9861 53.4793 56.323 53.6723 55.7838 54.071C55.2447 54.4697 54.8649 55.048 54.7126 55.7022L53.497 64.608L53.3213 64.3387L53.2362 64.2091C53.8783 63.7902 52.6119 61.2999 51.5389 59.4436L51.4416 59.2752C52.1223 58.9903 52.8782 58.721 52.8782 58.721L51.204 57.6726C51.204 57.6726 49.6636 55.4362 48.0237 53.622C49.1287 46.6822 46.7949 38.6607 46.7672 38.5498L46.7053 38.5665C47.0293 38.0403 47.2 37.4338 47.1982 36.8154C47.1984 36.3444 47.0988 35.8787 46.906 35.4492C46.7132 35.0197 46.4316 34.6362 46.0799 34.3241C46.0147 33.7301 45.9208 33.1183 45.7859 32.4744C45.7616 32.3636 45.7362 32.2406 45.7086 32.1231C45.5826 31.569 45.4555 31.0149 45.2887 30.4718C45.173 30.0847 45.0293 29.7065 44.8588 29.3403C43.9869 27.4929 42.1934 26.1718 40.2286 25.7064C39.2175 25.467 38.1809 25.8382 37.2372 25.6609C36.762 25.5734 36.3366 25.1157 35.8736 24.9306C35.2868 24.6956 34.6514 24.5859 34.0303 24.4873C33.2568 24.3576 32.4534 24.2291 31.6832 24.3975C30.4124 24.6746 29.4432 25.7075 28.7305 26.798C28.0177 27.8885 27.4641 29.0965 26.5833 30.0562C25.9943 30.699 25.2694 31.2155 24.7445 31.9114C23.971 32.9355 23.7024 34.2388 23.4538 35.5044C23.1466 37.0615 22.8394 38.6407 22.846 40.2222C22.846 40.589 22.8515 40.9569 22.8836 41.3249C22.9643 42.2691 23.1786 43.2 23.2295 44.1454C23.2295 44.2473 23.2372 44.3493 23.2394 44.4513C23.2284 46.1812 22.7189 47.8868 22.2128 49.5492C22.0515 50.0778 21.8879 50.6109 21.6968 51.1318C20.6801 51.2182 19.7076 51.4221 18.9662 51.8233C16.2565 53.2773 14.1713 56.5201 14.1713 56.5201L10.2075 60.1773C10.2075 60.1773 11.7722 60.9098 12.5027 62.1655C12.5288 62.2097 12.5588 62.2516 12.5922 62.2907L12.5347 62.4237L10.2075 67.8142C10.2075 67.8142 11.6683 68.8604 13.8541 68.6509C14.2094 68.6064 14.57 68.6327 14.915 68.7285C14.915 68.795 14.9084 68.8626 14.9062 68.9335C14.7725 72.0178 14.7017 78.7759 16.293 83.3407L12.6972 87.5521L5.51427 89.6854L5.20154 95.2267H126.001L125.792 89.6843ZM22.194 69.0211C22.5021 69.084 22.8025 69.1799 23.0902 69.307V73.1593C22.9002 71.7983 22.6361 70.4042 22.2681 69.2449C22.2449 69.1696 22.2239 69.0953 22.194 69.0211ZM42.9349 76.4341C42.9349 76.4208 42.9349 76.4075 42.9349 76.3942C42.9393 76.2597 42.9574 76.1261 42.989 75.9953C43.0339 75.7925 43.1337 75.6062 43.2775 75.4567C43.5438 75.1896 43.8189 74.9025 44.0941 74.5911C44.2635 75.0297 44.5081 75.4351 44.8168 75.7891C45.1704 76.1848 45.9605 76.5405 47.07 76.8619C45.6998 76.6487 44.3196 76.5059 42.9349 76.4341ZM51.9533 75.9022L48.3419 76.9739C46.6346 76.5904 45.4202 76.1515 44.9704 75.644C44.6558 75.2801 44.4114 74.8607 44.2499 74.4072C45.5384 72.9088 46.7915 70.8929 47.0789 68.14C47.0866 68.068 47.0921 67.9937 47.0988 67.9184C47.4905 67.6951 47.8605 67.4353 48.2038 67.1426L48.269 67.2955C49.24 69.5097 50.6134 71.5233 52.319 73.2335L51.9533 75.9022ZM46.6004 38.7283C46.8844 39.7556 48.8105 47.029 47.8447 53.4247C47.2435 52.7753 46.6368 52.1946 46.0931 51.8122C45.9644 51.7228 45.8296 51.6425 45.6898 51.5717C45.5693 50.3992 45.5141 49.1835 45.5053 47.9788C45.5163 46.4871 45.6047 45.0076 45.7263 43.6001C45.8578 42.1084 46.0125 40.6854 46.1086 39.2857C46.2927 39.1188 46.4576 38.9318 46.6004 38.7283Z" fill="url(#paint0_linear)"/>
<path d="M44.8378 40.5192H43.8952V33.9806H44.8378C45.5576 33.9806 46.248 34.2673 46.757 34.7778C47.2659 35.2882 47.5519 35.9805 47.5519 36.7024V37.7907C47.5527 38.1487 47.4832 38.5034 47.3472 38.8344C47.2112 39.1654 47.0114 39.4662 46.7593 39.7197C46.5072 39.9731 46.2077 40.1742 45.878 40.3114C45.5483 40.4486 45.1948 40.5192 44.8378 40.5192Z" fill="#DFE6F5"/>
<path d="M43.7614 40.5192H44.0288C44.3969 40.5192 44.6952 40.22 44.6952 39.851V34.6544C44.6952 34.2853 44.3969 33.9861 44.0288 33.9861H43.7614C43.3934 33.9861 43.0951 34.2853 43.0951 34.6544V39.851C43.0951 40.22 43.3934 40.5192 43.7614 40.5192Z" fill="#535461"/>
<g opacity="0.1">
<path opacity="0.1" d="M44.8377 40.5192H43.8951V33.9806H44.8377C45.5575 33.9806 46.2479 34.2673 46.7568 34.7778C47.2658 35.2882 47.5517 35.9805 47.5517 36.7024V37.7907C47.5526 38.1487 47.4831 38.5034 47.3471 38.8344C47.2111 39.1654 47.0113 39.4662 46.7592 39.7197C46.5071 39.9731 46.2076 40.1742 45.8779 40.3114C45.5482 40.4486 45.1947 40.5192 44.8377 40.5192Z" fill="black"/>
<path opacity="0.1" d="M43.7614 40.5192H44.0288C44.3969 40.5192 44.6952 40.22 44.6952 39.851V34.6544C44.6952 34.2853 44.3969 33.9861 44.0288 33.9861H43.7614C43.3934 33.9861 43.0951 34.2853 43.0951 34.6544V39.851C43.0951 40.22 43.3934 40.5192 43.7614 40.5192Z" fill="black"/>
</g>
<path d="M45.2864 37.4417H28.811V54.5807H45.2864V37.4417Z" fill="#865A61"/>
<path opacity="0.1" d="M45.2864 35.0811H28.811V52.2201H45.2864V35.0811Z" fill="black"/>
<path d="M44.724 51.656L43.7295 58.904L43.2609 62.3107L43.0885 63.5619L41.6442 66.3857L38.9921 71.5679L33.8757 72.1841L24.876 59.4559C24.876 59.4559 20.1641 50.4248 27.3282 51.2449C31.3451 51.7059 32.3009 48.0997 32.3728 44.8425C32.3908 43.2026 32.2427 41.5651 31.9307 39.9551L39.0938 43.445C38.9273 44.223 38.802 44.9378 38.718 45.5895C38.3688 48.2559 38.6584 49.9183 39.2639 50.9257C40.8762 53.6088 44.724 51.656 44.724 51.656Z" fill="#E3BBC2"/>
<path opacity="0.1" d="M39.0959 43.4461C38.9294 44.2241 38.8041 44.9389 38.7201 45.5906C37.9768 45.8027 37.2077 45.9101 36.4349 45.9097C35.0119 45.9121 33.6125 45.5452 32.3727 44.8447C32.3907 43.2048 32.2426 41.5672 31.9307 39.9573L39.0959 43.4461Z" fill="black"/>
<path d="M36.4349 45.7036C41.0128 45.7036 44.724 41.9818 44.724 37.3907C44.724 32.7995 41.0128 29.0777 36.4349 29.0777C31.857 29.0777 28.1459 32.7995 28.1459 37.3907C28.1459 41.9818 31.857 45.7036 36.4349 45.7036Z" fill="#E3BBC2"/>
<path d="M47.4877 84.7028L13.4099 87.3737L18.9352 80.9082C24.8639 77.2754 24.813 72.2816 24.0251 69.1841C23.7806 68.1914 23.4111 67.2339 22.9256 66.3348L34.7044 66.3902H34.8039L35.7719 68.5967L35.8161 68.6964L36.5366 70.3377L38.992 65.9247L39.8462 64.5438L40.3236 63.7681C40.3236 63.7681 47.385 62.1256 47.4866 66.3336C47.4989 66.8168 47.48 67.3003 47.4303 67.781C47.0789 71.1678 45.2312 73.4198 43.7007 74.9547C41.9613 76.698 47.4877 84.7028 47.4877 84.7028Z" fill="#EC7580"/>
<path d="M43.4178 75.6862C43.168 76.6836 43.7979 78.398 44.6333 80.0815C40.6275 80.5137 36.2349 80.2887 36.2349 80.2887L31.7273 81.5211L19.039 85.216C18.4865 84.4989 18.0445 83.5979 17.6787 82.5828L18.9363 81.111C22.8935 78.6862 24.1864 75.6551 24.3754 72.9865C24.4506 71.7752 24.3327 70.5598 24.0262 69.3858C23.7818 68.3939 23.4127 67.4372 22.9277 66.5387L34.7066 66.5941H34.806L35.7741 68.8006L35.8183 68.9004L36.5388 70.5417L38.9942 66.1286L39.8462 64.7478L40.3236 63.972C40.3236 63.972 47.3849 62.3273 47.4877 66.5387C47.4999 67.0219 47.4811 67.5053 47.4313 67.9861C47.0799 71.3729 45.2323 73.6248 43.7018 75.1597C43.5607 75.3058 43.4625 75.4879 43.4178 75.6862Z" fill="#EC7580"/>
<path d="M70.0011 81.008C69.7967 83.4705 63.8614 80.1868 63.8614 80.1868C63.8614 80.1868 62.0193 79.5706 55.7768 75.5687C52.6075 73.5374 50.1083 70.6111 48.5939 67.1582C48.3552 66.6245 48.1553 66.0741 47.9961 65.5113L52.297 62.3273L53.5512 64.2501L57.7206 70.6392L63.8603 74.7397C63.8603 74.7397 70.2056 78.5455 70.0011 81.008Z" fill="#E3BBC2"/>
<path d="M124.646 89.1159H6.65576L18.4677 85.6105L47.9971 76.8465L66.8274 71.2576H91.0812L124.646 89.1159Z" fill="#CBCDDA"/>
<path d="M6.65584 89.1159L6.34863 94.5552H124.851L124.646 89.1159H6.65584Z" fill="#CBCDDA"/>
<path opacity="0.1" d="M6.65584 89.1159L6.34863 94.5552H124.851L124.646 89.1159H6.65584Z" fill="black"/>
<path d="M37.5897 81.4235L62.5298 78.8535L62.837 83.7797L51.4372 84.9134C50.6509 84.9774 49.8594 84.9157 49.0923 84.7306L37.5687 81.7449C37.532 81.7353 37.4997 81.7131 37.4775 81.6822C37.4553 81.6513 37.4445 81.6136 37.447 81.5755C37.4495 81.5375 37.4651 81.5016 37.4911 81.4738C37.5172 81.4461 37.552 81.4283 37.5897 81.4235Z" fill="#535461"/>
<path opacity="0.2" d="M37.5897 81.4235L62.5298 78.8535L62.837 83.7797L51.4372 84.9134C50.6509 84.9774 49.8594 84.9157 49.0923 84.7306L37.5687 81.7449C37.532 81.7353 37.4997 81.7131 37.4775 81.6822C37.4553 81.6513 37.4445 81.6136 37.447 81.5755C37.4495 81.5375 37.4651 81.5016 37.4911 81.4738C37.5172 81.4461 37.552 81.4283 37.5897 81.4235Z" fill="black"/>
<path d="M37.5898 81.3205L62.7354 78.7505L63.0427 83.6766L51.6417 84.6031C50.8559 84.6681 50.0648 84.6075 49.2979 84.4236L37.5688 81.643C37.5314 81.6339 37.4983 81.6119 37.4755 81.5808C37.4527 81.5496 37.4416 81.5115 37.4441 81.4729C37.4466 81.4344 37.4626 81.3979 37.4892 81.3701C37.5159 81.3422 37.5515 81.3246 37.5898 81.3205Z" fill="#535461"/>
<path opacity="0.3" d="M43.5516 81.5L56.8476 80.1413L57.0101 82.7457L50.982 83.2366C50.5662 83.2706 50.1477 83.238 49.7421 83.1402L43.5405 81.6696C43.521 81.6646 43.5039 81.6529 43.4921 81.6366C43.4803 81.6203 43.4746 81.6003 43.4759 81.5802C43.4772 81.5601 43.4855 81.541 43.4993 81.5264C43.5131 81.5118 43.5316 81.5024 43.5516 81.5Z" fill="white"/>
<path opacity="0.1" d="M53.5512 64.2524C53.4705 64.3632 53.3302 64.4131 53.1158 64.382C51.0692 64.0739 48.7155 67.0507 48.7155 67.0507C48.7155 67.0507 48.6735 67.0906 48.5972 67.1615C48.3585 66.6278 48.1586 66.0774 47.9994 65.5147L52.297 62.3273L53.5512 64.2524Z" fill="black"/>
<path opacity="0.1" d="M47.4314 67.9794C46.4688 68.5169 45.1439 68.9026 44.1106 67.8686C42.326 66.0788 39.1975 66.3171 39.0031 66.3281C39.3224 66.2838 39.6053 65.6255 39.8462 64.7433L40.3236 63.9676C40.3236 63.9676 47.3849 62.3273 47.4877 66.5387C47.4997 67.0197 47.4808 67.5009 47.4314 67.9794Z" fill="black"/>
<path opacity="0.1" d="M43.7273 58.904L43.0864 63.5586L41.642 66.3825C40.747 66.1526 39.8214 66.0655 38.8993 66.1242C39.9171 65.9835 40.5746 59.6055 40.5746 59.6055L40.6331 59.5922L43.7273 58.904Z" fill="black"/>
<path d="M53.1158 64.177C51.0692 63.8689 48.7154 66.8457 48.7154 66.8457C48.7154 66.8457 45.9528 69.5143 44.1106 67.6669C42.326 65.877 39.1975 66.1153 39.0031 66.1264C40.0208 65.9845 40.6783 59.6066 40.6783 59.6066L40.7369 59.5933L50.5576 57.4034C50.5576 57.4034 51.1432 58.3033 51.8041 59.4492C52.9964 61.5139 54.433 64.3754 53.1158 64.177Z" fill="#EC7580"/>
<path opacity="0.1" d="M50.6592 60.072C50.762 60.2771 49.0215 61.3033 48.2038 60.9952C47.386 60.6871 45.3384 62.3251 45.1339 62.5346C44.9295 62.744 40.3247 62.2265 40.3247 62.2265C40.5158 61.358 40.6534 60.4787 40.7369 59.5933L50.5576 57.4034C50.5576 57.4034 51.1432 58.3033 51.8041 59.4492C51.193 59.7008 50.6095 59.9712 50.6592 60.072Z" fill="black"/>
<path opacity="0.1" d="M44.724 51.656L43.7294 58.9039L43.2609 62.3107C41.8884 62.2076 40.2242 62.0225 40.2242 62.0225C40.2242 62.0225 41.9636 54.7358 39.0981 50.94C39.0981 50.94 39.1589 50.94 39.2683 50.929C40.8762 53.6087 44.724 51.656 44.724 51.656Z" fill="black"/>
<path d="M39.1987 50.9378C39.1987 50.9378 44.4179 50.5278 46.4645 51.9641C48.5111 53.4004 51.4793 57.7114 51.4793 57.7114L53.117 58.7377C53.117 58.7377 50.5587 59.6609 50.6615 59.867C50.7643 60.0731 49.0238 61.0983 48.2061 60.7902C47.3883 60.4821 45.3407 62.1201 45.1362 62.3295C44.9318 62.539 40.327 62.0214 40.327 62.0214C40.327 62.0214 42.0642 54.7347 39.1987 50.9378Z" fill="#EC7580"/>
<path d="M76.9055 79.2114C75.7209 79.1826 47.8701 78.4578 45.2113 75.4833C42.3801 72.3159 45.1284 63.1895 47.4424 56.5999C49.9608 49.4262 46.9584 39.125 46.9286 39.0075L47.1264 38.9554C47.1573 39.074 50.1752 49.435 47.6358 56.6675C44.0366 66.9199 43.2929 73.0296 45.3638 75.3459C47.9651 78.255 76.6215 79.0031 76.911 79.0031L76.9055 79.2114Z" fill="#DFE6F5"/>
<path d="M57.651 53.6398L83.4144 53.2475C83.7465 53.2815 84.0685 53.3815 84.3617 53.5416C84.6548 53.7018 84.9132 53.919 85.1217 54.1804C85.3303 54.4419 85.4848 54.7424 85.5762 55.0644C85.6677 55.3864 85.6942 55.7234 85.6543 56.0558L82.7314 80.4594C82.6616 81.0457 82.3886 81.5888 81.9603 81.9939C81.5319 82.399 80.9753 82.6403 80.3876 82.6759L54.0551 84.3106C53.6823 84.333 53.3091 84.2718 52.9629 84.1314C52.6166 83.9909 52.3058 83.7749 52.0533 83.4989C51.8008 83.2229 51.6127 82.8939 51.5029 82.5359C51.3931 82.1778 51.3642 81.7997 51.4185 81.4291L54.9149 55.7821C55.0086 55.1406 55.3453 54.56 55.8548 54.161C56.3644 53.762 57.0077 53.5754 57.651 53.6398Z" fill="#535461"/>
<path opacity="0.2" d="M57.651 53.6398L83.4144 53.2475C83.7465 53.2815 84.0685 53.3815 84.3617 53.5416C84.6548 53.7018 84.9132 53.919 85.1217 54.1804C85.3303 54.4419 85.4848 54.7424 85.5762 55.0644C85.6677 55.3864 85.6942 55.7234 85.6543 56.0558L82.7314 80.4594C82.6616 81.0457 82.3886 81.5888 81.9603 81.9939C81.5319 82.399 80.9753 82.6403 80.3876 82.6759L54.0551 84.3106C53.6823 84.333 53.3091 84.2718 52.9629 84.1314C52.6166 83.9909 52.3058 83.7749 52.0533 83.4989C51.8008 83.2229 51.6127 82.8939 51.5029 82.5359C51.3931 82.1778 51.3642 81.7997 51.4185 81.4291L54.9149 55.7821C55.0086 55.1406 55.3453 54.56 55.8548 54.161C56.3644 53.762 57.0077 53.5754 57.651 53.6398Z" fill="black"/>
<path d="M57.8555 53.6398L83.6188 53.2475C83.9513 53.2809 84.2739 53.3805 84.5675 53.5404C84.8612 53.7004 85.1201 53.9175 85.3291 54.179C85.5381 54.4405 85.6929 54.7412 85.7847 55.0634C85.8764 55.3857 85.9031 55.7231 85.8632 56.0558L82.9403 80.4594C82.8704 81.0457 82.5975 81.5888 82.1692 81.9939C81.7408 82.399 81.1842 82.6403 80.5965 82.6759L54.2607 84.3106C53.8878 84.333 53.5147 84.2718 53.1684 84.1314C52.8221 83.9909 52.5114 83.7749 52.2589 83.4989C52.0063 83.2229 51.8183 82.8939 51.7085 82.5359C51.5987 82.1778 51.5698 81.7997 51.624 81.4291L55.1204 55.7821C55.2142 55.1408 55.5507 54.5604 56.06 54.1614C56.5693 53.7625 57.2124 53.5757 57.8555 53.6398Z" fill="#535461"/>
<path opacity="0.3" d="M70.4609 68.743C71.1389 68.743 71.6886 68.1918 71.6886 67.5118C71.6886 66.8318 71.1389 66.2805 70.4609 66.2805C69.7828 66.2805 69.2332 66.8318 69.2332 67.5118C69.2332 68.1918 69.7828 68.743 70.4609 68.743Z" fill="white"/>
<path opacity="0.1" d="M44.6333 80.0826C40.6275 80.5148 36.2349 80.2898 36.2349 80.2898L31.7273 81.5211L19.039 85.216C18.4865 84.4989 18.0445 83.5979 17.6787 82.5828L18.9363 81.111C22.8935 78.6862 24.1864 75.6551 24.3754 72.9865C24.7135 75.6407 24.7699 78.0312 24.7699 78.0312L29.8863 77.5181L37.32 75.7449C37.8319 75.6227 38.3564 75.5613 38.8826 75.562C39.8506 75.562 41.5734 75.5831 43.4133 75.6828C43.168 76.6813 43.7979 78.3969 44.6333 80.0826Z" fill="black"/>
<path opacity="0.1" d="M50.2504 78.7504C47.8966 81.521 35.8216 80.906 35.8216 80.906L31.3185 82.1372L18.6291 85.831C18.5739 85.759 18.5186 85.6858 18.4678 85.6094L47.9983 76.8453C49.8835 77.2266 51.0405 77.8206 50.2504 78.7504Z" fill="black"/>
<path d="M50.2504 78.5455C47.8966 81.3161 35.8217 80.701 35.8217 80.701L31.3185 81.9312L18.6291 85.6261C15.6455 81.7472 15.7118 72.5033 15.8742 68.7641C15.9184 67.76 15.9682 67.1527 15.9682 67.1527C15.9682 67.1527 20.2657 64.484 22.2106 67.1527C22.5576 67.6281 22.8483 68.2931 23.0947 69.0644C24.2229 72.6208 24.3611 78.4413 24.3611 78.4413L29.4775 77.9282L36.9112 76.155C37.4235 76.0328 37.9483 75.9714 38.4749 75.9721C41.5558 75.981 52.2705 76.1672 50.2504 78.5455Z" fill="#E3BBC2"/>
<path opacity="0.1" d="M23.0935 69.0655C22.4404 68.9237 21.6481 68.9547 20.574 69.4113C18.4246 70.3345 16.788 70.1294 16.788 70.1294C16.788 70.1294 16.9195 69.0821 15.8752 68.7641C15.9194 67.76 15.9692 67.1527 15.9692 67.1527C15.9692 67.1527 20.2668 64.484 22.2117 67.1527C22.5553 67.6281 22.8482 68.2931 23.0935 69.0655Z" fill="black"/>
<path opacity="0.1" d="M35.816 68.8982C35.7475 68.9126 34.827 69.0866 33.0534 68.692C31.2113 68.282 30.4952 69.1021 29.4719 69.5132C28.4486 69.9244 25.7932 70.1294 24.7654 69.7194C24.5234 69.6218 24.2803 69.4977 24.0228 69.3869C23.7796 68.3948 23.4117 67.4377 22.9277 66.5387L34.7066 66.5941L35.7741 68.8006L35.816 68.8982Z" fill="black"/>
<path d="M35.8161 68.6931C35.8161 68.6931 34.8956 68.8981 33.0534 68.4881C31.2113 68.078 30.4952 68.8981 29.4719 69.3093C28.4486 69.7204 25.7877 69.9255 24.7644 69.5143C23.7411 69.1032 22.7178 68.2831 20.5651 69.2062C18.4125 70.1294 16.7792 69.9244 16.7792 69.9244C16.7792 69.9244 16.9836 68.2819 14.8354 68.4836C12.6872 68.6853 11.2539 67.6624 11.2539 67.6624L13.537 62.3739L14.2221 60.7858L31.3439 59.6121H31.4257L35.8161 68.6931Z" fill="#EC7580"/>
<path opacity="0.1" d="M33.0535 63.7681C31.9275 61.9206 25.9922 63.563 25.9922 63.563C25.9922 63.563 23.1268 64.3842 22.5124 62.8449C21.8979 61.3055 17.5042 62.3273 17.5042 62.3273C17.5042 62.3273 14.3161 63.5265 13.5448 62.3761L14.2299 60.788L31.344 59.6121L33.0535 63.7681Z" fill="black"/>
<path d="M28.1458 51.6561C28.1458 51.6561 22.5177 50.5268 19.8579 51.9642C17.198 53.4016 15.1514 56.5823 15.1514 56.5823L11.2616 60.1741C11.2616 60.1741 12.7965 60.8922 13.5126 62.1235C14.2287 63.3547 17.5041 62.1235 17.5041 62.1235C17.5041 62.1235 21.9044 61.0973 22.5188 62.6366C23.1333 64.176 25.9987 63.3547 25.9987 63.3547C25.9987 63.3547 31.9339 61.7123 33.06 63.5598L28.1458 51.6561Z" fill="#EC7580"/>
<path opacity="0.1" d="M34.6336 25.3595C33.8711 25.231 33.0866 25.1057 32.3307 25.2709C31.0842 25.5424 30.1338 26.5564 29.4343 27.6248C28.7348 28.6931 28.1911 29.8789 27.3281 30.8198C26.7501 31.4504 26.0396 31.9569 25.5246 32.6396C24.7666 33.6448 24.5024 34.927 24.2582 36.1638C23.9002 37.9791 23.541 39.821 23.6991 41.6685C23.7786 42.595 23.9886 43.5071 24.0383 44.4391C24.1389 46.3109 23.5875 48.1484 23.0438 49.9415C22.6669 51.1806 22.278 52.4428 21.5332 53.5012C21.0392 54.2027 20.406 54.7901 19.8026 55.3985C19.657 55.5226 19.5474 55.6838 19.4855 55.8651C19.3551 56.3949 19.9927 56.7517 20.48 56.9911C21.9708 57.7369 22.9487 59.1921 24.1079 60.3912C25.2671 61.5903 26.9258 62.6199 28.5204 62.1389C28.9934 61.9959 29.4421 61.7244 29.9349 61.7333C30.2664 61.7388 30.5847 61.874 30.8996 61.9849C31.6831 62.2608 32.5081 62.3995 33.3385 62.3949C33.522 62.4106 33.706 62.3721 33.8678 62.2841C34.1143 62.1167 34.1618 61.7798 34.1861 61.4828C34.3419 59.6187 34.4966 57.748 34.3916 55.8806C34.154 51.6516 30.2576 46.7598 31.7395 42.7911C32.3837 41.06 33.5617 39.5706 34.2137 37.8428C34.9011 36.022 37.3245 34.5436 37.8052 32.6562C37.8593 32.4434 37.9333 32.2129 38.119 32.1021C38.3743 31.9447 38.7069 32.0821 38.9533 32.2528C40.3479 33.217 40.8021 35.0301 41.3093 36.6503C41.7181 37.9553 42.2245 39.2275 42.8243 40.456C43.1559 41.121 43.8675 41.8912 44.4908 41.4878C44.1769 44.2895 42.3646 46.7365 41.9547 49.5248C41.5546 52.2423 42.5238 55.0195 42.148 57.7392C41.9007 59.4902 41.1101 61.1187 39.8882 62.3938C41.2671 62.6685 42.6851 62.6813 44.0686 62.4315C45.471 62.1777 46.9716 61.5116 47.4777 60.1751C48.0303 58.7044 47.1761 57.1263 46.7418 55.6146C45.6997 51.9807 45.7804 47.6829 46.1108 43.916C46.4511 40.0427 46.9617 36.6514 46.0964 32.8612C45.8842 31.9314 45.6688 30.9938 45.2621 30.1316C44.4068 28.3196 42.6475 27.023 40.7192 26.5664C39.7246 26.3314 38.7102 26.6961 37.7842 26.5232C37.3178 26.4356 36.9001 25.9879 36.447 25.8061C35.8658 25.5679 35.2425 25.4615 34.6336 25.3595Z" fill="black"/>
<path d="M47.4722 59.9624C46.9661 61.2989 45.4654 61.965 44.062 62.2188C42.6784 62.4681 41.2605 62.4553 39.8816 62.1811C41.1031 60.9057 41.8936 59.2773 42.1414 57.5265C42.5182 54.8057 41.5491 52.0284 41.948 49.3121C42.358 46.5227 44.1703 44.0757 44.4841 41.274C43.8609 41.6774 43.1437 40.9105 42.8166 40.2422C42.217 39.0136 41.7106 37.7414 41.3016 36.4365C40.7944 34.8162 40.3402 33.0009 38.9456 32.039C38.6992 31.8683 38.3665 31.7309 38.1113 31.8894C37.9245 32.0002 37.8516 32.234 37.7974 32.4435C37.3178 34.3275 34.8933 35.8081 34.2071 37.629C33.554 39.3567 32.376 40.8429 31.7318 42.5773C30.2554 46.5448 34.1518 51.4366 34.3839 55.6657C34.4878 57.5331 34.3331 59.4049 34.1784 61.2679C34.1529 61.566 34.1054 61.9029 33.859 62.0703C33.6975 62.1582 33.5139 62.1967 33.3308 62.1811C32.5027 62.1861 31.68 62.0481 30.8985 61.7733C30.5836 61.6624 30.2676 61.5272 29.9338 61.5217C29.441 61.5139 28.9923 61.7855 28.5194 61.9273C26.9247 62.4083 25.2649 61.3787 24.1068 60.1796C22.9487 58.9805 21.9675 57.5276 20.4778 56.7862C19.9905 56.5423 19.3529 56.1899 19.4833 55.6591C19.5457 55.4783 19.6552 55.3176 19.8004 55.1936C20.4038 54.5852 21.0381 53.9967 21.5321 53.2963C22.2769 52.2379 22.6647 50.9756 23.0427 49.7366C23.5886 47.9434 24.14 46.106 24.0372 44.2341C23.9886 43.3065 23.7786 42.3944 23.698 41.4635C23.5388 39.6194 23.8991 37.7753 24.2571 35.96C24.5002 34.7232 24.7644 33.4409 25.5235 32.4357C26.0396 31.7531 26.749 31.2466 27.3281 30.616C28.1923 29.6751 28.7337 28.4893 29.4343 27.4198C30.1349 26.3503 31.0853 25.3374 32.3318 25.0659C33.0866 24.9008 33.8723 25.0271 34.6348 25.1545C35.2436 25.2576 35.8669 25.364 36.4426 25.5978C36.8968 25.7796 37.3145 26.2284 37.7797 26.3138C38.7058 26.4878 39.7235 26.1232 40.7148 26.3581C42.6431 26.8136 44.4024 28.1102 45.2577 29.9222C45.425 30.2809 45.5661 30.6513 45.6798 31.0305C45.8434 31.5624 45.9682 32.1066 46.092 32.6496C46.1185 32.7605 46.1439 32.8801 46.1683 32.9943C46.9252 36.6027 46.4368 39.2304 46.1064 42.984C45.776 46.7377 45.6953 51.7669 46.7363 55.3964C47.1705 56.9125 48.0292 58.4917 47.4722 59.9624Z" fill="#865A61"/>
<path opacity="0.05" d="M35.668 66.4866C35.668 66.4866 36.4868 67.8165 36.4868 68.7441C36.4868 68.7441 37.1012 66.4866 37.6129 66.4866" fill="black"/>
<path d="M33.7232 66.7936V73.5672C33.7247 74.6736 33.3532 75.7481 32.6689 76.616C32.552 76.764 32.427 76.9053 32.2943 77.0393C31.8379 77.4991 31.2955 77.8639 30.6981 78.1128C30.1007 78.3617 29.4602 78.4899 28.8134 78.4899C28.1665 78.4899 27.526 78.3617 26.9286 78.1128C26.3313 77.8639 25.7888 77.4991 25.3324 77.0393C25.1998 76.9053 25.0747 76.764 24.9578 76.616C24.2735 75.7481 23.902 74.6736 23.9036 73.5672V66.7936C23.9012 65.6426 24.303 64.5276 25.0385 63.644C25.169 63.4871 25.3097 63.339 25.4595 63.2007C26.3691 62.3454 27.5692 61.8694 28.8161 61.8694C30.063 61.8694 31.2631 62.3454 32.1727 63.2007C32.2125 63.2361 32.2512 63.2749 32.2899 63.3115C32.4004 63.4223 32.4965 63.5331 32.5938 63.644C33.3272 64.5283 33.727 65.6433 33.7232 66.7936Z" fill="#DFE6F5"/>
<path opacity="0.1" d="M33.7232 66.7936V73.5672C33.7247 74.6736 33.3532 75.7481 32.6689 76.616C32.552 76.764 32.427 76.9053 32.2943 77.0393C31.8379 77.4991 31.2955 77.8639 30.6981 78.1128C30.1007 78.3617 29.4602 78.4899 28.8134 78.4899C28.1665 78.4899 27.526 78.3617 26.9286 78.1128C26.3313 77.8639 25.7888 77.4991 25.3324 77.0393C25.1998 76.9053 25.0747 76.764 24.9578 76.616C24.2735 75.7481 23.902 74.6736 23.9036 73.5672V66.7936C23.9012 65.6426 24.303 64.5276 25.0385 63.644C25.169 63.4871 25.3097 63.339 25.4595 63.2007C26.3691 62.3454 27.5692 61.8694 28.8161 61.8694C30.063 61.8694 31.2631 62.3454 32.1727 63.2007C32.2125 63.2361 32.2512 63.2749 32.2899 63.3115C32.4004 63.4223 32.4965 63.5331 32.5938 63.644C33.3272 64.5283 33.727 65.6433 33.7232 66.7936Z" fill="black"/>
<path d="M33.9286 66.7936V73.5672C33.9302 74.6736 33.5587 75.7481 32.8744 76.616C32.7575 76.764 32.6324 76.9053 32.4998 77.0393C32.0434 77.4991 31.5009 77.8639 30.9036 78.1128C30.3062 78.3617 29.6657 78.4899 29.0188 78.4899C28.372 78.4899 27.7315 78.3617 27.1341 78.1128C26.5367 77.8639 25.9943 77.4991 25.5379 77.0393C25.4052 76.9053 25.2802 76.764 25.1633 76.616C24.4766 75.749 24.1027 74.6744 24.1024 73.5672V66.7936C24.1001 65.6426 24.5019 64.5276 25.2373 63.644C25.3679 63.4871 25.5085 63.339 25.6583 63.2007C26.568 62.3454 27.7681 61.8694 29.015 61.8694C30.2618 61.8694 31.462 62.3454 32.3716 63.2007C32.4114 63.2361 32.45 63.2749 32.4887 63.3115C32.5992 63.4223 32.6954 63.5331 32.7926 63.644C33.5284 64.5274 33.9306 65.6425 33.9286 66.7936Z" fill="#DFE6F5"/>
<path opacity="0.1" d="M26.8663 63.7149C27.036 63.7149 27.1735 63.577 27.1735 63.4068C27.1735 63.2367 27.036 63.0988 26.8663 63.0988C26.6966 63.0988 26.5591 63.2367 26.5591 63.4068C26.5591 63.577 26.6966 63.7149 26.8663 63.7149Z" fill="black"/>
<path opacity="0.1" d="M26.8663 64.7411C27.036 64.7411 27.1735 64.6031 27.1735 64.433C27.1735 64.2628 27.036 64.1249 26.8663 64.1249C26.6966 64.1249 26.5591 64.2628 26.5591 64.433C26.5591 64.6031 26.6966 64.7411 26.8663 64.7411Z" fill="black"/>
<path opacity="0.1" d="M26.8663 65.7673C27.036 65.7673 27.1735 65.6294 27.1735 65.4592C27.1735 65.2891 27.036 65.1511 26.8663 65.1511C26.6966 65.1511 26.5591 65.2891 26.5591 65.4592C26.5591 65.6294 26.6966 65.7673 26.8663 65.7673Z" fill="black"/>
<path opacity="0.1" d="M26.8663 66.7935C27.036 66.7935 27.1735 66.6556 27.1735 66.4855C27.1735 66.3153 27.036 66.1774 26.8663 66.1774C26.6966 66.1774 26.5591 66.3153 26.5591 66.4855C26.5591 66.6556 26.6966 66.7935 26.8663 66.7935Z" fill="black"/>
<path opacity="0.1" d="M26.8663 67.8197C27.036 67.8197 27.1735 67.6818 27.1735 67.5116C27.1735 67.3415 27.036 67.2036 26.8663 67.2036C26.6966 67.2036 26.5591 67.3415 26.5591 67.5116C26.5591 67.6818 26.6966 67.8197 26.8663 67.8197Z" fill="black"/>
<path opacity="0.1" d="M26.8663 68.8461C27.036 68.8461 27.1735 68.7081 27.1735 68.538C27.1735 68.3678 27.036 68.2299 26.8663 68.2299C26.6966 68.2299 26.5591 68.3678 26.5591 68.538C26.5591 68.7081 26.6966 68.8461 26.8663 68.8461Z" fill="black"/>
<path opacity="0.1" d="M26.8663 69.8723C27.036 69.8723 27.1735 69.7343 27.1735 69.5641C27.1735 69.394 27.036 69.256 26.8663 69.256C26.6966 69.256 26.5591 69.394 26.5591 69.5641C26.5591 69.7343 26.6966 69.8723 26.8663 69.8723Z" fill="black"/>
<path opacity="0.1" d="M26.8663 70.8996C27.036 70.8996 27.1735 70.7616 27.1735 70.5915C27.1735 70.4213 27.036 70.2834 26.8663 70.2834C26.6966 70.2834 26.5591 70.4213 26.5591 70.5915C26.5591 70.7616 26.6966 70.8996 26.8663 70.8996Z" fill="black"/>
<path opacity="0.1" d="M26.8663 71.9258C27.036 71.9258 27.1735 71.7879 27.1735 71.6177C27.1735 71.4476 27.036 71.3096 26.8663 71.3096C26.6966 71.3096 26.5591 71.4476 26.5591 71.6177C26.5591 71.7879 26.6966 71.9258 26.8663 71.9258Z" fill="black"/>
<path opacity="0.1" d="M26.8663 72.9521C27.036 72.9521 27.1735 72.8142 27.1735 72.644C27.1735 72.4739 27.036 72.3359 26.8663 72.3359C26.6966 72.3359 26.5591 72.4739 26.5591 72.644C26.5591 72.8142 26.6966 72.9521 26.8663 72.9521Z" fill="black"/>
<path opacity="0.1" d="M26.8663 73.9783C27.036 73.9783 27.1735 73.8404 27.1735 73.6702C27.1735 73.5001 27.036 73.3621 26.8663 73.3621C26.6966 73.3621 26.5591 73.5001 26.5591 73.6702C26.5591 73.8404 26.6966 73.9783 26.8663 73.9783Z" fill="black"/>
<path opacity="0.1" d="M26.8663 75.0046C27.036 75.0046 27.1735 74.8667 27.1735 74.6965C27.1735 74.5264 27.036 74.3884 26.8663 74.3884C26.6966 74.3884 26.5591 74.5264 26.5591 74.6965C26.5591 74.8667 26.6966 75.0046 26.8663 75.0046Z" fill="black"/>
<path opacity="0.1" d="M26.8663 76.0309C27.036 76.0309 27.1735 75.8929 27.1735 75.7228C27.1735 75.5526 27.036 75.4147 26.8663 75.4147C26.6966 75.4147 26.5591 75.5526 26.5591 75.7228C26.5591 75.8929 26.6966 76.0309 26.8663 76.0309Z" fill="black"/>
<path opacity="0.1" d="M26.8663 77.057C27.036 77.057 27.1735 76.9191 27.1735 76.7489C27.1735 76.5787 27.036 76.4408 26.8663 76.4408C26.6966 76.4408 26.5591 76.5787 26.5591 76.7489C26.5591 76.9191 26.6966 77.057 26.8663 77.057Z" fill="black"/>
<path opacity="0.1" d="M25.7412 63.4068C25.7411 63.4652 25.7245 63.5223 25.6933 63.5716C25.662 63.6209 25.6174 63.6603 25.5647 63.6851C25.512 63.71 25.4534 63.7193 25.3956 63.712C25.3378 63.7047 25.2833 63.6811 25.2384 63.6439C25.369 63.4871 25.5096 63.339 25.6594 63.2006C25.7118 63.2564 25.7411 63.3301 25.7412 63.4068Z" fill="black"/>
<path opacity="0.1" d="M25.434 64.7411C25.6037 64.7411 25.7412 64.6031 25.7412 64.433C25.7412 64.2628 25.6037 64.1249 25.434 64.1249C25.2644 64.1249 25.1268 64.2628 25.1268 64.433C25.1268 64.6031 25.2644 64.7411 25.434 64.7411Z" fill="black"/>
<path opacity="0.1" d="M25.434 65.7673C25.6037 65.7673 25.7412 65.6294 25.7412 65.4592C25.7412 65.2891 25.6037 65.1511 25.434 65.1511C25.2644 65.1511 25.1268 65.2891 25.1268 65.4592C25.1268 65.6294 25.2644 65.7673 25.434 65.7673Z" fill="black"/>
<path opacity="0.1" d="M25.434 66.7935C25.6037 66.7935 25.7412 66.6556 25.7412 66.4855C25.7412 66.3153 25.6037 66.1774 25.434 66.1774C25.2644 66.1774 25.1268 66.3153 25.1268 66.4855C25.1268 66.6556 25.2644 66.7935 25.434 66.7935Z" fill="black"/>
<path opacity="0.1" d="M25.434 67.8197C25.6037 67.8197 25.7412 67.6818 25.7412 67.5116C25.7412 67.3415 25.6037 67.2036 25.434 67.2036C25.2644 67.2036 25.1268 67.3415 25.1268 67.5116C25.1268 67.6818 25.2644 67.8197 25.434 67.8197Z" fill="black"/>
<path opacity="0.1" d="M25.434 68.8461C25.6037 68.8461 25.7412 68.7081 25.7412 68.538C25.7412 68.3678 25.6037 68.2299 25.434 68.2299C25.2644 68.2299 25.1268 68.3678 25.1268 68.538C25.1268 68.7081 25.2644 68.8461 25.434 68.8461Z" fill="black"/>
<path opacity="0.1" d="M25.434 69.8723C25.6037 69.8723 25.7412 69.7343 25.7412 69.5641C25.7412 69.394 25.6037 69.256 25.434 69.256C25.2644 69.256 25.1268 69.394 25.1268 69.5641C25.1268 69.7343 25.2644 69.8723 25.434 69.8723Z" fill="black"/>
<path opacity="0.1" d="M25.434 70.8996C25.6037 70.8996 25.7412 70.7616 25.7412 70.5915C25.7412 70.4213 25.6037 70.2834 25.434 70.2834C25.2644 70.2834 25.1268 70.4213 25.1268 70.5915C25.1268 70.7616 25.2644 70.8996 25.434 70.8996Z" fill="black"/>
<path opacity="0.1" d="M25.434 71.9258C25.6037 71.9258 25.7412 71.7879 25.7412 71.6177C25.7412 71.4476 25.6037 71.3096 25.434 71.3096C25.2644 71.3096 25.1268 71.4476 25.1268 71.6177C25.1268 71.7879 25.2644 71.9258 25.434 71.9258Z" fill="black"/>
<path opacity="0.1" d="M25.434 72.9521C25.6037 72.9521 25.7412 72.8142 25.7412 72.644C25.7412 72.4739 25.6037 72.3359 25.434 72.3359C25.2644 72.3359 25.1268 72.4739 25.1268 72.644C25.1268 72.8142 25.2644 72.9521 25.434 72.9521Z" fill="black"/>
<path opacity="0.1" d="M25.434 73.9783C25.6037 73.9783 25.7412 73.8404 25.7412 73.6702C25.7412 73.5001 25.6037 73.3621 25.434 73.3621C25.2644 73.3621 25.1268 73.5001 25.1268 73.6702C25.1268 73.8404 25.2644 73.9783 25.434 73.9783Z" fill="black"/>
<path opacity="0.1" d="M25.434 75.0046C25.6037 75.0046 25.7412 74.8667 25.7412 74.6965C25.7412 74.5264 25.6037 74.3884 25.434 74.3884C25.2644 74.3884 25.1268 74.5264 25.1268 74.6965C25.1268 74.8667 25.2644 75.0046 25.434 75.0046Z" fill="black"/>
<path opacity="0.1" d="M25.434 76.0309C25.6037 76.0309 25.7412 75.8929 25.7412 75.7228C25.7412 75.5526 25.6037 75.4147 25.434 75.4147C25.2644 75.4147 25.1268 75.5526 25.1268 75.7228C25.1268 75.8929 25.2644 76.0309 25.434 76.0309Z" fill="black"/>
<path opacity="0.1" d="M25.7412 76.749C25.7413 76.8134 25.7211 76.8762 25.6837 76.9285C25.6462 76.9808 25.5932 77.02 25.5323 77.0404C25.3997 76.9064 25.2746 76.7651 25.1577 76.6171C25.1873 76.5536 25.2375 76.5022 25.3002 76.4713C25.3629 76.4405 25.4343 76.4321 25.5024 76.4475C25.5705 76.4629 25.6314 76.5012 25.6748 76.556C25.7182 76.6108 25.7417 76.6789 25.7412 76.749Z" fill="black"/>
<path opacity="0.1" d="M28.2995 63.7149C28.4692 63.7149 28.6067 63.577 28.6067 63.4068C28.6067 63.2367 28.4692 63.0988 28.2995 63.0988C28.1298 63.0988 27.9923 63.2367 27.9923 63.4068C27.9923 63.577 28.1298 63.7149 28.2995 63.7149Z" fill="black"/>
<path opacity="0.1" d="M28.2995 64.7411C28.4692 64.7411 28.6067 64.6031 28.6067 64.433C28.6067 64.2628 28.4692 64.1249 28.2995 64.1249C28.1298 64.1249 27.9923 64.2628 27.9923 64.433C27.9923 64.6031 28.1298 64.7411 28.2995 64.7411Z" fill="black"/>
<path opacity="0.1" d="M28.2995 65.7673C28.4692 65.7673 28.6067 65.6294 28.6067 65.4592C28.6067 65.2891 28.4692 65.1511 28.2995 65.1511C28.1298 65.1511 27.9923 65.2891 27.9923 65.4592C27.9923 65.6294 28.1298 65.7673 28.2995 65.7673Z" fill="black"/>
<path opacity="0.1" d="M28.2995 66.7935C28.4692 66.7935 28.6067 66.6556 28.6067 66.4855C28.6067 66.3153 28.4692 66.1774 28.2995 66.1774C28.1298 66.1774 27.9923 66.3153 27.9923 66.4855C27.9923 66.6556 28.1298 66.7935 28.2995 66.7935Z" fill="black"/>
<path opacity="0.1" d="M28.2995 67.8197C28.4692 67.8197 28.6067 67.6818 28.6067 67.5116C28.6067 67.3415 28.4692 67.2036 28.2995 67.2036C28.1298 67.2036 27.9923 67.3415 27.9923 67.5116C27.9923 67.6818 28.1298 67.8197 28.2995 67.8197Z" fill="black"/>
<path opacity="0.1" d="M28.2995 68.8461C28.4692 68.8461 28.6067 68.7081 28.6067 68.538C28.6067 68.3678 28.4692 68.2299 28.2995 68.2299C28.1298 68.2299 27.9923 68.3678 27.9923 68.538C27.9923 68.7081 28.1298 68.8461 28.2995 68.8461Z" fill="black"/>
<path opacity="0.1" d="M28.2995 69.8723C28.4692 69.8723 28.6067 69.7343 28.6067 69.5641C28.6067 69.394 28.4692 69.256 28.2995 69.256C28.1298 69.256 27.9923 69.394 27.9923 69.5641C27.9923 69.7343 28.1298 69.8723 28.2995 69.8723Z" fill="black"/>
<path opacity="0.1" d="M28.2995 70.8996C28.4692 70.8996 28.6067 70.7616 28.6067 70.5915C28.6067 70.4213 28.4692 70.2834 28.2995 70.2834C28.1298 70.2834 27.9923 70.4213 27.9923 70.5915C27.9923 70.7616 28.1298 70.8996 28.2995 70.8996Z" fill="black"/>
<path opacity="0.1" d="M28.2995 71.9258C28.4692 71.9258 28.6067 71.7879 28.6067 71.6177C28.6067 71.4476 28.4692 71.3096 28.2995 71.3096C28.1298 71.3096 27.9923 71.4476 27.9923 71.6177C27.9923 71.7879 28.1298 71.9258 28.2995 71.9258Z" fill="black"/>
<path opacity="0.1" d="M28.2995 72.9521C28.4692 72.9521 28.6067 72.8142 28.6067 72.644C28.6067 72.4739 28.4692 72.3359 28.2995 72.3359C28.1298 72.3359 27.9923 72.4739 27.9923 72.644C27.9923 72.8142 28.1298 72.9521 28.2995 72.9521Z" fill="black"/>
<path opacity="0.1" d="M28.2995 73.9783C28.4692 73.9783 28.6067 73.8404 28.6067 73.6702C28.6067 73.5001 28.4692 73.3621 28.2995 73.3621C28.1298 73.3621 27.9923 73.5001 27.9923 73.6702C27.9923 73.8404 28.1298 73.9783 28.2995 73.9783Z" fill="black"/>
<path opacity="0.1" d="M28.2995 75.0046C28.4692 75.0046 28.6067 74.8667 28.6067 74.6965C28.6067 74.5264 28.4692 74.3884 28.2995 74.3884C28.1298 74.3884 27.9923 74.5264 27.9923 74.6965C27.9923 74.8667 28.1298 75.0046 28.2995 75.0046Z" fill="black"/>
<path opacity="0.1" d="M28.2995 76.0309C28.4692 76.0309 28.6067 75.8929 28.6067 75.7228C28.6067 75.5526 28.4692 75.4147 28.2995 75.4147C28.1298 75.4147 27.9923 75.5526 27.9923 75.7228C27.9923 75.8929 28.1298 76.0309 28.2995 76.0309Z" fill="black"/>
<path opacity="0.1" d="M28.2995 77.057C28.4692 77.057 28.6067 76.9191 28.6067 76.7489C28.6067 76.5787 28.4692 76.4408 28.2995 76.4408C28.1298 76.4408 27.9923 76.5787 27.9923 76.7489C27.9923 76.9191 28.1298 77.057 28.2995 77.057Z" fill="black"/>
<path opacity="0.1" d="M29.7316 63.7149C29.9013 63.7149 30.0389 63.577 30.0389 63.4068C30.0389 63.2367 29.9013 63.0988 29.7316 63.0988C29.562 63.0988 29.4244 63.2367 29.4244 63.4068C29.4244 63.577 29.562 63.7149 29.7316 63.7149Z" fill="black"/>
<path opacity="0.1" d="M29.7316 64.7411C29.9013 64.7411 30.0389 64.6031 30.0389 64.433C30.0389 64.2628 29.9013 64.1249 29.7316 64.1249C29.562 64.1249 29.4244 64.2628 29.4244 64.433C29.4244 64.6031 29.562 64.7411 29.7316 64.7411Z" fill="black"/>
<path opacity="0.1" d="M29.7316 65.7673C29.9013 65.7673 30.0389 65.6294 30.0389 65.4592C30.0389 65.2891 29.9013 65.1511 29.7316 65.1511C29.562 65.1511 29.4244 65.2891 29.4244 65.4592C29.4244 65.6294 29.562 65.7673 29.7316 65.7673Z" fill="black"/>
<path opacity="0.1" d="M29.7316 66.7935C29.9013 66.7935 30.0389 66.6556 30.0389 66.4855C30.0389 66.3153 29.9013 66.1774 29.7316 66.1774C29.562 66.1774 29.4244 66.3153 29.4244 66.4855C29.4244 66.6556 29.562 66.7935 29.7316 66.7935Z" fill="black"/>
<path opacity="0.1" d="M29.7316 67.8197C29.9013 67.8197 30.0389 67.6818 30.0389 67.5116C30.0389 67.3415 29.9013 67.2036 29.7316 67.2036C29.562 67.2036 29.4244 67.3415 29.4244 67.5116C29.4244 67.6818 29.562 67.8197 29.7316 67.8197Z" fill="black"/>
<path opacity="0.1" d="M29.7316 68.8461C29.9013 68.8461 30.0389 68.7081 30.0389 68.538C30.0389 68.3678 29.9013 68.2299 29.7316 68.2299C29.562 68.2299 29.4244 68.3678 29.4244 68.538C29.4244 68.7081 29.562 68.8461 29.7316 68.8461Z" fill="black"/>
<path opacity="0.1" d="M29.7316 69.8723C29.9013 69.8723 30.0389 69.7343 30.0389 69.5641C30.0389 69.394 29.9013 69.256 29.7316 69.256C29.562 69.256 29.4244 69.394 29.4244 69.5641C29.4244 69.7343 29.562 69.8723 29.7316 69.8723Z" fill="black"/>
<path opacity="0.1" d="M29.7316 70.8996C29.9013 70.8996 30.0389 70.7616 30.0389 70.5915C30.0389 70.4213 29.9013 70.2834 29.7316 70.2834C29.562 70.2834 29.4244 70.4213 29.4244 70.5915C29.4244 70.7616 29.562 70.8996 29.7316 70.8996Z" fill="black"/>
<path opacity="0.1" d="M29.7316 71.9258C29.9013 71.9258 30.0389 71.7879 30.0389 71.6177C30.0389 71.4476 29.9013 71.3096 29.7316 71.3096C29.562 71.3096 29.4244 71.4476 29.4244 71.6177C29.4244 71.7879 29.562 71.9258 29.7316 71.9258Z" fill="black"/>
<path opacity="0.1" d="M29.7316 72.9521C29.9013 72.9521 30.0389 72.8142 30.0389 72.644C30.0389 72.4739 29.9013 72.3359 29.7316 72.3359C29.562 72.3359 29.4244 72.4739 29.4244 72.644C29.4244 72.8142 29.562 72.9521 29.7316 72.9521Z" fill="black"/>
<path opacity="0.1" d="M29.7316 73.9783C29.9013 73.9783 30.0389 73.8404 30.0389 73.6702C30.0389 73.5001 29.9013 73.3621 29.7316 73.3621C29.562 73.3621 29.4244 73.5001 29.4244 73.6702C29.4244 73.8404 29.562 73.9783 29.7316 73.9783Z" fill="black"/>
<path opacity="0.1" d="M29.7316 75.0046C29.9013 75.0046 30.0389 74.8667 30.0389 74.6965C30.0389 74.5264 29.9013 74.3884 29.7316 74.3884C29.562 74.3884 29.4244 74.5264 29.4244 74.6965C29.4244 74.8667 29.562 75.0046 29.7316 75.0046Z" fill="black"/>
<path opacity="0.1" d="M29.7316 76.0309C29.9013 76.0309 30.0389 75.8929 30.0389 75.7228C30.0389 75.5526 29.9013 75.4147 29.7316 75.4147C29.562 75.4147 29.4244 75.5526 29.4244 75.7228C29.4244 75.8929 29.562 76.0309 29.7316 76.0309Z" fill="black"/>
<path opacity="0.1" d="M29.7316 77.057C29.9013 77.057 30.0389 76.9191 30.0389 76.7489C30.0389 76.5787 29.9013 76.4408 29.7316 76.4408C29.562 76.4408 29.4244 76.5787 29.4244 76.7489C29.4244 76.9191 29.562 77.057 29.7316 77.057Z" fill="black"/>
<path opacity="0.1" d="M31.1649 63.7149C31.3345 63.7149 31.4721 63.577 31.4721 63.4068C31.4721 63.2367 31.3345 63.0988 31.1649 63.0988C30.9952 63.0988 30.8577 63.2367 30.8577 63.4068C30.8577 63.577 30.9952 63.7149 31.1649 63.7149Z" fill="black"/>
<path opacity="0.1" d="M31.1649 64.7411C31.3345 64.7411 31.4721 64.6031 31.4721 64.433C31.4721 64.2628 31.3345 64.1249 31.1649 64.1249C30.9952 64.1249 30.8577 64.2628 30.8577 64.433C30.8577 64.6031 30.9952 64.7411 31.1649 64.7411Z" fill="black"/>
<path opacity="0.1" d="M31.1649 65.7673C31.3345 65.7673 31.4721 65.6294 31.4721 65.4592C31.4721 65.2891 31.3345 65.1511 31.1649 65.1511C30.9952 65.1511 30.8577 65.2891 30.8577 65.4592C30.8577 65.6294 30.9952 65.7673 31.1649 65.7673Z" fill="black"/>
<path opacity="0.1" d="M31.1649 66.7935C31.3345 66.7935 31.4721 66.6556 31.4721 66.4855C31.4721 66.3153 31.3345 66.1774 31.1649 66.1774C30.9952 66.1774 30.8577 66.3153 30.8577 66.4855C30.8577 66.6556 30.9952 66.7935 31.1649 66.7935Z" fill="black"/>
<path opacity="0.1" d="M31.1649 67.8197C31.3345 67.8197 31.4721 67.6818 31.4721 67.5116C31.4721 67.3415 31.3345 67.2036 31.1649 67.2036C30.9952 67.2036 30.8577 67.3415 30.8577 67.5116C30.8577 67.6818 30.9952 67.8197 31.1649 67.8197Z" fill="black"/>
<path opacity="0.1" d="M31.1649 68.8461C31.3345 68.8461 31.4721 68.7081 31.4721 68.538C31.4721 68.3678 31.3345 68.2299 31.1649 68.2299C30.9952 68.2299 30.8577 68.3678 30.8577 68.538C30.8577 68.7081 30.9952 68.8461 31.1649 68.8461Z" fill="black"/>
<path opacity="0.1" d="M31.1649 69.8723C31.3345 69.8723 31.4721 69.7343 31.4721 69.5641C31.4721 69.394 31.3345 69.256 31.1649 69.256C30.9952 69.256 30.8577 69.394 30.8577 69.5641C30.8577 69.7343 30.9952 69.8723 31.1649 69.8723Z" fill="black"/>
<path opacity="0.1" d="M31.1649 70.8996C31.3345 70.8996 31.4721 70.7616 31.4721 70.5915C31.4721 70.4213 31.3345 70.2834 31.1649 70.2834C30.9952 70.2834 30.8577 70.4213 30.8577 70.5915C30.8577 70.7616 30.9952 70.8996 31.1649 70.8996Z" fill="black"/>
<path opacity="0.1" d="M31.1649 71.9258C31.3345 71.9258 31.4721 71.7879 31.4721 71.6177C31.4721 71.4476 31.3345 71.3096 31.1649 71.3096C30.9952 71.3096 30.8577 71.4476 30.8577 71.6177C30.8577 71.7879 30.9952 71.9258 31.1649 71.9258Z" fill="black"/>
<path opacity="0.1" d="M31.1649 72.9521C31.3345 72.9521 31.4721 72.8142 31.4721 72.644C31.4721 72.4739 31.3345 72.3359 31.1649 72.3359C30.9952 72.3359 30.8577 72.4739 30.8577 72.644C30.8577 72.8142 30.9952 72.9521 31.1649 72.9521Z" fill="black"/>
<path opacity="0.1" d="M31.1649 73.9783C31.3345 73.9783 31.4721 73.8404 31.4721 73.6702C31.4721 73.5001 31.3345 73.3621 31.1649 73.3621C30.9952 73.3621 30.8577 73.5001 30.8577 73.6702C30.8577 73.8404 30.9952 73.9783 31.1649 73.9783Z" fill="black"/>
<path opacity="0.1" d="M31.1649 75.0046C31.3345 75.0046 31.4721 74.8667 31.4721 74.6965C31.4721 74.5264 31.3345 74.3884 31.1649 74.3884C30.9952 74.3884 30.8577 74.5264 30.8577 74.6965C30.8577 74.8667 30.9952 75.0046 31.1649 75.0046Z" fill="black"/>
<path opacity="0.1" d="M31.1649 76.0309C31.3345 76.0309 31.4721 75.8929 31.4721 75.7228C31.4721 75.5526 31.3345 75.4147 31.1649 75.4147C30.9952 75.4147 30.8577 75.5526 30.8577 75.7228C30.8577 75.8929 30.9952 76.0309 31.1649 76.0309Z" fill="black"/>
<path opacity="0.1" d="M31.1649 77.057C31.3345 77.057 31.4721 76.9191 31.4721 76.7489C31.4721 76.5787 31.3345 76.4408 31.1649 76.4408C30.9952 76.4408 30.8577 76.5787 30.8577 76.7489C30.8577 76.9191 30.9952 77.057 31.1649 77.057Z" fill="black"/>
<path opacity="0.1" d="M32.7937 63.6439C32.7488 63.6811 32.6943 63.7047 32.6365 63.712C32.5787 63.7193 32.5201 63.71 32.4674 63.6851C32.4147 63.6603 32.3701 63.6209 32.3388 63.5716C32.3076 63.5223 32.291 63.4651 32.2909 63.4067C32.2905 63.3293 32.3198 63.2547 32.3727 63.1984C32.4125 63.2338 32.4511 63.2726 32.4898 63.3092C32.5959 63.4178 32.6965 63.5286 32.7937 63.6439Z" fill="black"/>
<path opacity="0.1" d="M32.597 64.7411C32.7666 64.7411 32.9042 64.6031 32.9042 64.433C32.9042 64.2628 32.7666 64.1249 32.597 64.1249C32.4273 64.1249 32.2898 64.2628 32.2898 64.433C32.2898 64.6031 32.4273 64.7411 32.597 64.7411Z" fill="black"/>
<path opacity="0.1" d="M32.597 65.7673C32.7666 65.7673 32.9042 65.6294 32.9042 65.4592C32.9042 65.2891 32.7666 65.1511 32.597 65.1511C32.4273 65.1511 32.2898 65.2891 32.2898 65.4592C32.2898 65.6294 32.4273 65.7673 32.597 65.7673Z" fill="black"/>
<path opacity="0.1" d="M32.597 66.7935C32.7666 66.7935 32.9042 66.6556 32.9042 66.4855C32.9042 66.3153 32.7666 66.1774 32.597 66.1774C32.4273 66.1774 32.2898 66.3153 32.2898 66.4855C32.2898 66.6556 32.4273 66.7935 32.597 66.7935Z" fill="black"/>
<path opacity="0.1" d="M32.597 67.8197C32.7666 67.8197 32.9042 67.6818 32.9042 67.5116C32.9042 67.3415 32.7666 67.2036 32.597 67.2036C32.4273 67.2036 32.2898 67.3415 32.2898 67.5116C32.2898 67.6818 32.4273 67.8197 32.597 67.8197Z" fill="black"/>
<path opacity="0.1" d="M32.597 68.8461C32.7666 68.8461 32.9042 68.7081 32.9042 68.538C32.9042 68.3678 32.7666 68.2299 32.597 68.2299C32.4273 68.2299 32.2898 68.3678 32.2898 68.538C32.2898 68.7081 32.4273 68.8461 32.597 68.8461Z" fill="black"/>
<path opacity="0.1" d="M32.597 69.8723C32.7666 69.8723 32.9042 69.7343 32.9042 69.5641C32.9042 69.394 32.7666 69.256 32.597 69.256C32.4273 69.256 32.2898 69.394 32.2898 69.5641C32.2898 69.7343 32.4273 69.8723 32.597 69.8723Z" fill="black"/>
<path opacity="0.1" d="M32.597 70.8996C32.7666 70.8996 32.9042 70.7616 32.9042 70.5915C32.9042 70.4213 32.7666 70.2834 32.597 70.2834C32.4273 70.2834 32.2898 70.4213 32.2898 70.5915C32.2898 70.7616 32.4273 70.8996 32.597 70.8996Z" fill="black"/>
<path opacity="0.1" d="M32.597 71.9258C32.7666 71.9258 32.9042 71.7879 32.9042 71.6177C32.9042 71.4476 32.7666 71.3096 32.597 71.3096C32.4273 71.3096 32.2898 71.4476 32.2898 71.6177C32.2898 71.7879 32.4273 71.9258 32.597 71.9258Z" fill="black"/>
<path opacity="0.1" d="M32.597 72.9521C32.7666 72.9521 32.9042 72.8142 32.9042 72.644C32.9042 72.4739 32.7666 72.3359 32.597 72.3359C32.4273 72.3359 32.2898 72.4739 32.2898 72.644C32.2898 72.8142 32.4273 72.9521 32.597 72.9521Z" fill="black"/>
<path opacity="0.1" d="M32.597 73.9783C32.7666 73.9783 32.9042 73.8404 32.9042 73.6702C32.9042 73.5001 32.7666 73.3621 32.597 73.3621C32.4273 73.3621 32.2898 73.5001 32.2898 73.6702C32.2898 73.8404 32.4273 73.9783 32.597 73.9783Z" fill="black"/>
<path opacity="0.1" d="M32.597 75.0046C32.7666 75.0046 32.9042 74.8667 32.9042 74.6965C32.9042 74.5264 32.7666 74.3884 32.597 74.3884C32.4273 74.3884 32.2898 74.5264 32.2898 74.6965C32.2898 74.8667 32.4273 75.0046 32.597 75.0046Z" fill="black"/>
<path opacity="0.1" d="M32.597 76.0309C32.7666 76.0309 32.9042 75.8929 32.9042 75.7228C32.9042 75.5526 32.7666 75.4147 32.597 75.4147C32.4273 75.4147 32.2898 75.5526 32.2898 75.7228C32.2898 75.8929 32.4273 76.0309 32.597 76.0309Z" fill="black"/>
<path opacity="0.1" d="M32.8744 76.616C32.7575 76.764 32.6324 76.9053 32.4998 77.0393C32.4515 77.0233 32.4079 76.9955 32.373 76.9584C32.338 76.9213 32.3128 76.8761 32.2996 76.8268C32.2864 76.7776 32.2856 76.7258 32.2973 76.6761C32.3089 76.6265 32.3327 76.5805 32.3665 76.5423C32.4003 76.5042 32.443 76.475 32.4907 76.4575C32.5385 76.4399 32.5899 76.4346 32.6402 76.4419C32.6906 76.4492 32.7383 76.4689 32.7792 76.4993C32.8201 76.5297 32.8528 76.5698 32.8744 76.616Z" fill="black"/>
<path d="M28.9304 73.054H28.6917C28.3621 73.054 28.095 73.322 28.095 73.6525V86.2078C28.095 86.5384 28.3621 86.8063 28.6917 86.8063H28.9304C29.26 86.8063 29.5271 86.5384 29.5271 86.2078V73.6525C29.5271 73.322 29.26 73.054 28.9304 73.054Z" fill="#54576B"/>
<path d="M32.9551 84.9588H24.6672C24.243 84.9588 23.8992 85.3036 23.8992 85.729V86.036C23.8992 86.4614 24.243 86.8063 24.6672 86.8063H32.9551C33.3793 86.8063 33.7231 86.4614 33.7231 86.036V85.729C33.7231 85.3036 33.3793 84.9588 32.9551 84.9588Z" fill="#54576B"/>
<path opacity="0.1" d="M28.9304 73.054H28.6917C28.3621 73.054 28.095 73.322 28.095 73.6525V86.2078C28.095 86.5384 28.3621 86.8063 28.6917 86.8063H28.9304C29.26 86.8063 29.5271 86.5384 29.5271 86.2078V73.6525C29.5271 73.322 29.26 73.054 28.9304 73.054Z" fill="black"/>
<path opacity="0.1" d="M32.9551 84.9588H24.6672C24.243 84.9588 23.8992 85.3036 23.8992 85.729V86.036C23.8992 86.4614 24.243 86.8063 24.6672 86.8063H32.9551C33.3793 86.8063 33.7231 86.4614 33.7231 86.036V85.729C33.7231 85.3036 33.3793 84.9588 32.9551 84.9588Z" fill="black"/>
<path d="M29.135 73.054H28.8963C28.5667 73.054 28.2996 73.322 28.2996 73.6525V86.2078C28.2996 86.5384 28.5667 86.8063 28.8963 86.8063H29.135C29.4645 86.8063 29.7317 86.5384 29.7317 86.2078V73.6525C29.7317 73.322 29.4645 73.054 29.135 73.054Z" fill="#54576B"/>
<path d="M33.1595 84.9588H24.8715C24.4474 84.9588 24.1035 85.3036 24.1035 85.729V86.036C24.1035 86.4614 24.4474 86.8063 24.8715 86.8063H33.1595C33.5836 86.8063 33.9275 86.4614 33.9275 86.036V85.729C33.9275 85.3036 33.5836 84.9588 33.1595 84.9588Z" fill="#54576B"/>
<path d="M37.5466 74.2177C36.7785 75.8935 35.5473 77.3133 33.999 78.3085C32.4506 79.3038 30.6501 79.8328 28.811 79.8328C26.972 79.8328 25.1715 79.3038 23.6231 78.3085C22.0748 77.3133 20.8436 75.8935 20.0755 74.2177C19.0578 72.7537 18.1682 69.8345 18.1682 70.1814C18.1682 71.5831 18.4435 72.971 18.9784 74.266C19.5132 75.561 20.2971 76.7376 21.2854 77.7288C22.2737 78.7199 23.447 79.5061 24.7382 80.0425C26.0295 80.5789 27.4134 80.855 28.811 80.855C30.2087 80.855 31.5926 80.5789 32.8839 80.0425C34.1751 79.5061 35.3484 78.7199 36.3367 77.7288C37.3249 76.7376 38.1089 75.561 38.6437 74.266C39.1786 72.971 39.4539 71.5831 39.4539 70.1814C39.4539 69.8345 38.5643 72.7537 37.5466 74.2177Z" fill="#54576B"/>
<path d="M28.8111 59.5068C27.0943 59.5073 25.4031 59.9244 23.8819 60.7226C22.3608 61.5208 21.0548 62.6763 20.0756 64.0905C19.4919 65.3555 19.1902 66.7329 19.1915 68.1268C19.1915 68.4696 19.2096 68.8121 19.2457 69.153C19.4863 66.7767 20.5978 64.5745 22.3649 62.9732C24.132 61.3718 26.4289 60.4852 28.8105 60.4852C31.1922 60.4852 33.4891 61.3718 35.2562 62.9732C37.0233 64.5745 38.1348 66.7767 38.3754 69.153C38.4115 68.8121 38.4295 68.4696 38.4295 68.1268C38.4308 66.7329 38.1291 65.3555 37.5455 64.0905C36.5664 62.6765 35.2606 61.521 33.7396 60.7229C32.2187 59.9247 30.5277 59.5075 28.8111 59.5068Z" fill="#54576B"/>
<path opacity="0.1" d="M29.0156 74.7984C29.2414 74.7984 29.4244 74.6148 29.4244 74.3884C29.4244 74.1619 29.2414 73.9783 29.0156 73.9783C28.7897 73.9783 28.6067 74.1619 28.6067 74.3884C28.6067 74.6148 28.7897 74.7984 29.0156 74.7984Z" fill="black"/>
<path opacity="0.2" d="M48.2027 84.5488C48.2875 84.5488 48.3563 84.4798 48.3563 84.3948C48.3563 84.3097 48.2875 84.2407 48.2027 84.2407C48.1178 84.2407 48.0491 84.3097 48.0491 84.3948C48.0491 84.4798 48.1178 84.5488 48.2027 84.5488Z" fill="black"/>
<path d="M42.4078 87.4934C41.7969 87.4973 41.1929 87.3644 40.6397 87.1044C38.5777 86.1314 37.561 86.2544 36.0228 86.4395C34.5812 86.6387 33.1233 86.6918 31.6711 86.598C31.2661 86.5791 30.8704 86.4698 30.5129 86.2781C30.1554 86.0863 29.8451 85.817 29.6046 85.4897C27.3238 82.5196 28.8498 74.6998 28.9162 74.3685C28.923 74.3433 28.9391 74.3217 28.9612 74.308C28.9833 74.2943 29.0097 74.2894 29.0352 74.2945C29.0607 74.2996 29.0834 74.3141 29.0986 74.3352C29.1138 74.3564 29.1205 74.3825 29.1173 74.4083C29.1018 74.4881 27.5426 82.4675 29.7671 85.3634C29.9898 85.6677 30.2776 85.9183 30.6093 86.0968C30.941 86.2753 31.3083 86.3772 31.6843 86.3951C33.1226 86.4877 34.5664 86.4346 35.9941 86.2367C37.5677 86.046 38.6075 85.9197 40.7226 86.9182C44.0964 88.5108 48.0503 84.4601 48.0889 84.4191C48.1084 84.4023 48.1334 84.3933 48.1591 84.3941C48.1848 84.3948 48.2093 84.4052 48.2277 84.4231C48.2461 84.4411 48.2572 84.4653 48.2587 84.491C48.2603 84.5167 48.2521 84.5421 48.2359 84.5621C48.2061 84.5976 45.3782 87.4934 42.4078 87.4934Z" fill="#DFE6F5"/>
<path d="M46.1673 32.9931C44.4776 29.9399 41.0475 27.8464 37.1058 27.8464C31.4921 27.8464 26.9238 32.0821 26.9238 37.2886H26.2021C26.2021 31.6865 31.092 27.1282 37.1002 27.1282C40.579 27.1282 43.682 28.6554 45.6788 31.0293C45.8424 31.5612 45.9672 32.1054 46.091 32.6484C46.1186 32.7648 46.1441 32.8789 46.1673 32.9931Z" fill="#535461"/>
<path d="M27.7248 34.2887H28.6674V40.8274H27.7248C27.005 40.8274 26.3146 40.5406 25.8057 40.0302C25.2967 39.5197 25.0108 38.8274 25.0108 38.1055V37.0172C25.0099 36.6592 25.0794 36.3046 25.2154 35.9736C25.3514 35.6426 25.5512 35.3417 25.8033 35.0883C26.0554 34.8348 26.3549 34.6337 26.6846 34.4965C27.0143 34.3593 27.3678 34.2887 27.7248 34.2887Z" fill="#DFE6F5"/>
<path d="M28.8011 34.2943H28.5337C28.1656 34.2943 27.8673 34.5934 27.8673 34.9625V40.1591C27.8673 40.5282 28.1656 40.8274 28.5337 40.8274H28.8011C29.1691 40.8274 29.4674 40.5282 29.4674 40.1591V34.9625C29.4674 34.5934 29.1691 34.2943 28.8011 34.2943Z" fill="#535461"/>
<path d="M88.607 81.2684C88.607 81.2684 86.8522 80.6721 86.0079 82.2226C85.7851 82.6429 85.6718 83.1129 85.6784 83.5889C85.6849 84.0649 85.8112 84.5315 86.0455 84.9455C86.598 85.9507 87.7428 87.2562 89.9132 87.1399C91.7498 87.0412 92.3609 85.636 92.5266 84.3282C92.5902 83.8379 92.5272 83.3395 92.3436 82.8806C92.16 82.4217 91.862 82.0178 91.4782 81.7075C91.0944 81.3972 90.6376 81.1909 90.1515 81.1084C89.6654 81.0259 89.1663 81.0699 88.702 81.2362L88.607 81.2684Z" fill="#6C63FF"/>
<path opacity="0.1" d="M86.4167 85.0851C86.1825 84.6711 86.0562 84.2045 86.0497 83.7285C86.0431 83.2525 86.1564 82.7825 86.3792 82.3622C87.2234 80.8106 88.9783 81.4079 88.9783 81.4079L89.0678 81.3758C89.7369 81.133 90.4723 81.1496 91.1298 81.4224C90.767 81.2057 90.3607 81.0724 89.9403 81.0322C89.5199 80.9919 89.0959 81.0457 88.6987 81.1896L88.6092 81.2218C88.6092 81.2218 86.8543 80.6255 86.0101 82.176C85.7873 82.5963 85.674 83.0663 85.6806 83.5423C85.6871 84.0183 85.8134 84.4849 86.0477 84.8989C86.4134 85.5639 87.0334 86.3518 88.0368 86.7829C87.352 86.3763 86.7917 85.7891 86.4167 85.0851Z" fill="white"/>
<path opacity="0.2" d="M87.7009 82.0143C87.7009 82.0143 88.3517 82.5274 89.9309 82.0143H87.7009Z" fill="black"/>
<path d="M87.5616 78.2861C87.5616 78.2861 88.6766 81.3149 88.5838 82.1073L89.4678 82.0142C89.4678 82.0142 87.9749 79.3577 88.3517 78.2861H87.5616Z" fill="#6C63FF"/>
<path opacity="0.2" d="M87.5616 78.2861C87.5616 78.2861 88.6766 81.3149 88.5838 82.1073L89.4678 82.0142C89.4678 82.0142 87.9749 79.3577 88.3517 78.2861H87.5616Z" fill="black"/>
<path d="M92.1134 78.5387C92.1134 78.5387 90.3585 77.6388 89.5717 78.3825C88.7849 79.1261 88.6656 81.0268 88.6656 81.0268C88.6656 81.0268 91.5288 81.4224 92.1134 78.5387Z" fill="#6C63FF"/>
<path opacity="0.1" d="M92.1134 78.5387C92.1134 78.5387 90.3585 77.6388 89.5717 78.3825C88.7849 79.1261 88.6656 81.0268 88.6656 81.0268C88.6656 81.0268 91.5288 81.4224 92.1134 78.5387Z" fill="white"/>
<path d="M88.6666 81.0267C88.6666 81.0267 89.1274 78.8202 92.1133 78.5387" stroke="#6C63FF" stroke-miterlimit="10"/>
</g>
<defs>
<linearGradient id="paint0_linear" x1="65.6008" y1="95.23" x2="65.6008" y2="24.3111" gradientUnits="userSpaceOnUse">
<stop stop-color="#808080" stop-opacity="0.25"/>
<stop offset="0.54" stop-color="#808080" stop-opacity="0.12"/>
<stop offset="1" stop-color="#808080" stop-opacity="0.1"/>
</linearGradient>
<clipPath id="clip0">
<rect width="126" height="86" fill="white" transform="translate(0 17)"/>
</clipPath>
</defs>
</svg>
