<svg width="120" height="120" viewBox="0 0 120 120" fill="none" xmlns="http://www.w3.org/2000/svg">
<path d="M0 0H60C93.1371 0 120 26.8629 120 60C120 93.1371 93.1371 120 60 120C26.8629 120 0 93.1371 0 60V0Z" fill="#0847CE"/>
<path d="M76 74H70C69.4583 74 68.9896 73.8021 68.5938 73.4062C68.1979 73.0104 68 72.5417 68 72V52C68 51.4583 68.1979 50.9896 68.5938 50.5938C68.9896 50.1979 69.4583 50 70 50H72C72 43.8333 70.2812 38.9583 66.8438 35.375C63.4062 31.7917 58.4583 30 52 30C45.5417 30 40.5938 31.7917 37.1562 35.375C33.7188 38.9583 32 43.8333 32 50H34C34.5417 50 35.0104 50.1979 35.4062 50.5938C35.8021 50.9896 36 51.4583 36 52V72C36 72.5417 35.8021 73.0104 35.4062 73.4062C35.0104 73.8021 34.5417 74 34 74H32C32 76.2083 32.7812 78.0938 34.3438 79.6562C35.9062 81.2188 37.7917 82 40 82H44C44 80.875 44.3854 79.9271 45.1562 79.1562C45.9271 78.3854 46.875 78 48 78H52C53.125 78 54.0729 78.3854 54.8438 79.1562C55.6146 79.9271 56 80.8646 56 81.9688C56 83.0729 55.6146 84.0208 54.8438 84.8125C54.0729 85.6042 53.125 86 52 86H40C36.6667 86 33.8333 84.8333 31.5 82.5C29.1667 80.1667 28 77.3333 28 74C25.7917 74 23.9062 72.8333 22.3438 70.5C20.7812 68.1667 20 65.3333 20 62C20 59.8333 20.3646 57.8333 21.0938 56C21.8229 54.1667 22.7917 52.7292 24 51.6875V50C24 46.2083 24.7396 42.5833 26.2188 39.125C27.6979 35.6667 29.6875 32.6875 32.1875 30.1875C34.6875 27.6875 37.6667 25.6979 41.125 24.2188C44.5833 22.7396 48.2083 22 52 22C55.7917 22 59.4167 22.7396 62.875 24.2188C66.3333 25.6979 69.3125 27.6875 71.8125 30.1875C74.3125 32.6875 76.3021 35.6667 77.7812 39.125C79.2604 42.5833 80 46.2083 80 50V51.6875C81.2083 52.7292 82.1771 54.1667 82.9062 56C83.6354 57.8333 84 59.8333 84 62C84 65.3333 83.2188 68.1667 81.6562 70.5C80.0938 72.8333 78.2083 74 76 74Z" fill="white"/>
</svg>
