<svg width="120" height="120" viewBox="0 0 120 120" fill="none" xmlns="http://www.w3.org/2000/svg">
<path d="M0 0H60C93.1371 0 120 26.8629 120 60C120 93.1371 93.1371 120 60 120C26.8629 120 0 93.1371 0 60V0Z" fill="#0847CE"/>
<path d="M48 40C48 36.8174 49.2643 33.7652 51.5147 31.5147C53.7652 29.2643 56.8174 28 60 28C63.1826 28 66.2348 29.2643 68.4853 31.5147C70.7357 33.7652 72 36.8174 72 40V60C72 63.1826 70.7357 66.2348 68.4853 68.4853C66.2348 70.7357 63.1826 72 60 72C56.8174 72 53.7652 70.7357 51.5147 68.4853C49.2643 66.2348 48 63.1826 48 60V40Z" fill="white"/>
<path fill-rule="evenodd" clip-rule="evenodd" d="M42 54C42.5304 54 43.0391 54.2107 43.4142 54.5858C43.7893 54.9609 44 55.4696 44 56V60C44 64.2435 45.6857 68.3131 48.6863 71.3137C51.6869 74.3143 55.7565 76 60 76C64.2435 76 68.3131 74.3143 71.3137 71.3137C74.3143 68.3131 76 64.2435 76 60V56C76 55.4696 76.2107 54.9609 76.5858 54.5858C76.9609 54.2107 77.4696 54 78 54C78.5304 54 79.0391 54.2107 79.4142 54.5858C79.7893 54.9609 80 55.4696 80 56V60C80.0001 64.9581 78.1585 69.7395 74.8325 73.4166C71.5065 77.0936 66.9333 79.4042 62 79.9V88H74C74.5304 88 75.0391 88.2107 75.4142 88.5858C75.7893 88.9609 76 89.4696 76 90C76 90.5304 75.7893 91.0391 75.4142 91.4142C75.0391 91.7893 74.5304 92 74 92H46C45.4696 92 44.9609 91.7893 44.5858 91.4142C44.2107 91.0391 44 90.5304 44 90C44 89.4696 44.2107 88.9609 44.5858 88.5858C44.9609 88.2107 45.4696 88 46 88H58V79.9C53.0667 79.4042 48.4935 77.0936 45.1675 73.4166C41.8415 69.7395 39.9999 64.9581 40 60V56C40 55.4696 40.2107 54.9609 40.5858 54.5858C40.9609 54.2107 41.4696 54 42 54Z" fill="white"/>
</svg>
